<svg width="610.4800170898437px" height="124.439990234375px" xmlns="http://www.w3.org/2000/svg" viewBox="-55.240008544921864 12.780004882812499 610.4800170898437 124.439990234375" style="background: rgba(0, 0, 0, 0) none repeat scroll 0% 0%;" preserveAspectRatio="xMidYMid"><defs><filter id="editing-extrusion" x="-100%" y="-100%" width="300%" height="300%"><feFlood result="color1" flood-color="#444"></feFlood><feConvolveMatrix order="8,8" divisor="1" kernelMatrix="1 0 0 0 0 0 0 0 0 1 0 0 0 0 0 0 0 0 1 0 0 0 0 0 0 0 0 1 0 0 0 0 0 0 0 0 1 0 0 0 0 0 0 0 0 1 0 0 0 0 0 0 0 0 1 0 0 0 0 0 0 0 0 1" in="SourceAlpha" result="extrude"></feConvolveMatrix><feComposite in="color1" in2="extrude" result="comp-extrude" operator="in"></feComposite><feOffset dx="4" dy="4" in="comp-extrude" result="offset-extrude"></feOffset><feMerge><feMergeNode in="offset-extrude"></feMergeNode><feMergeNode in="SourceGraphic"></feMergeNode></feMerge></filter></defs><g filter="url(#editing-extrusion)"><g transform="translate(34.89498579502106, 99)"><path d="M34.50-13.25L34.50-13.25L34.50-13.25Q36.16-12.03 36.16-9.44L36.16-9.44L36.16-9.44Q36.16-6.85 35.04-5.02L35.04-5.02L35.04-5.02Q33.92-3.20 31.74-1.79L31.74-1.79L31.74-1.79Q27.07 1.22 18.91 1.22L18.91 1.22L18.91 1.22Q10.75 1.22 6.30-3.04L6.30-3.04L6.30-3.04Q1.86-7.30 1.86-14.85L1.86-14.85L1.86-14.85Q1.86-25.54 7.42-33.66L7.42-33.66L7.42-33.66Q11.65-39.68 19.20-42.24L19.20-42.24L19.20-42.24Q23.10-43.52 26.94-43.52L26.94-43.52L26.94-43.52Q30.78-43.52 33.15-43.01L33.15-43.01L33.15-43.01Q35.52-42.50 37.31-41.47L37.31-41.47L37.31-41.47Q41.22-39.23 41.22-35.65L41.22-35.65L41.22-35.65Q41.22-32.38 38.14-29.95L38.14-29.95L38.14-29.95Q35.33-27.78 33.02-27.78L33.02-27.78L33.02-27.78Q30.72-27.78 29.76-28.10L29.76-28.10L29.76-28.10Q30.02-30.40 30.02-31.90L30.02-31.90L30.02-31.90Q30.02-33.41 29.95-34.50L29.95-34.50L29.95-34.50Q29.89-35.58 29.57-36.61L29.57-36.61L29.57-36.61Q28.93-38.98 26.98-38.98L26.98-38.98L26.98-38.98Q25.02-38.98 23.07-37.15L23.07-37.15L23.07-37.15Q21.12-35.33 19.46-32.26L19.46-32.26L19.46-32.26Q15.68-25.28 15.68-17.02L15.68-17.02L15.68-17.02Q15.68-13.06 17.92-10.78L17.92-10.78L17.92-10.78Q20.16-8.51 24.96-8.51L24.96-8.51L24.96-8.51Q28.54-8.51 31.94-10.88L31.94-10.88L31.94-10.88Q33.41-11.90 34.50-13.25ZM55.42 1.28L55.42 1.28L55.42 1.28Q41.34 1.28 41.34-11.97L41.34-11.97L41.34-11.97Q41.34-21.38 46.53-27.46L46.53-27.46L46.53-27.46Q52.03-33.92 61.57-33.92L61.57-33.92L61.57-33.92Q68.48-33.92 72-30.72L72-30.72L72-30.72Q75.52-27.52 75.52-20.80L75.52-20.80L75.52-20.80Q75.52-10.56 70.02-4.61L70.02-4.61L70.02-4.61Q64.64 1.28 55.42 1.28ZM57.09-26.56L57.09-26.56L57.09-26.56Q56.32-24.83 55.71-22.24L55.71-22.24L55.71-22.24Q55.10-19.65 54.34-15.55L54.34-15.55L54.34-15.55Q53.57-11.46 53.57-6.40L53.57-6.40L53.57-6.40Q53.57-4.74 54.11-3.65L54.11-3.65L54.11-3.65Q54.66-2.56 56.13-2.56L56.13-2.56L56.13-2.56Q57.60-2.56 58.53-3.26L58.53-3.26L58.53-3.26Q59.46-3.97 60.16-5.63L60.16-5.63L60.16-5.63Q61.44-8.58 62.46-14.05L62.46-14.05L62.46-14.05Q63.49-19.52 63.58-21.89L63.58-21.89L63.58-21.89Q63.68-24.26 63.68-26.02L63.68-26.02L63.68-26.02Q63.68-27.78 63.17-28.93L63.17-28.93L63.17-28.93Q62.66-30.08 61.22-30.08L61.22-30.08L61.22-30.08Q59.78-30.08 58.82-29.18L58.82-29.18L58.82-29.18Q57.86-28.29 57.09-26.56ZM94.59-3.52L94.59-3.52L94.59-3.52Q92.61 1.28 86.27 1.28L86.27 1.28L86.27 1.28Q83.07 1.28 81.02-0.96L81.02-0.96L81.02-0.96Q79.36-2.82 79.36-4.93L79.36-4.93L79.36-4.93Q79.36-9.73 81.60-20.22L81.60-20.22L86.27-44.80L99.26-46.08L93.06-13.70L93.06-13.70Q91.97-8.96 91.97-7.30L91.97-7.30L91.97-7.30Q91.97-3.65 94.59-3.52ZM115.33-3.52L115.33-3.52L115.33-3.52Q113.34 1.28 107.01 1.28L107.01 1.28L107.01 1.28Q103.81 1.28 101.76-0.96L101.76-0.96L101.76-0.96Q100.10-2.82 100.10-4.93L100.10-4.93L100.10-4.93Q100.10-9.73 102.34-20.22L102.34-20.22L107.01-44.80L120-46.08L113.79-13.70L113.79-13.70Q112.70-8.96 112.70-7.30L112.70-7.30L112.70-7.30Q112.70-3.65 115.33-3.52ZM123.55-1.92L123.55-1.92L123.55-1.92Q122.05-3.58 121.38-6.21L121.38-6.21L121.38-6.21Q120.70-8.83 120.70-13.12L120.70-13.12L120.70-13.12Q120.70-17.41 122.18-21.31L122.18-21.31L122.18-21.31Q123.65-25.22 126.34-28.03L126.34-28.03L126.34-28.03Q131.84-33.92 140.93-33.92L140.93-33.92L140.93-33.92Q144.19-33.92 146.56-32.83L146.56-32.83L157.50-33.92L152.77-8.96L152.77-8.96Q152.58-8.19 152.58-6.78L152.58-6.78L152.58-6.78Q152.58-5.38 153.44-4.48L153.44-4.48L153.44-4.48Q154.30-3.58 155.58-3.46L155.58-3.46L155.58-3.46Q154.94-1.28 152.61 0L152.61 0L152.61 0Q150.27 1.28 147.65 1.28L147.65 1.28L147.65 1.28Q145.02 1.28 143.26 0.29L143.26 0.29L143.26 0.29Q141.50-0.70 140.99-2.37L140.99-2.37L140.99-2.37Q139.97-0.77 137.79 0.26L137.79 0.26L137.79 0.26Q135.62 1.28 132.70 1.28L132.70 1.28L132.70 1.28Q129.79 1.28 127.42 0.51L127.42 0.51L127.42 0.51Q125.06-0.26 123.55-1.92ZM137.06-27.90L137.06-27.90L137.06-27.90Q136.32-26.75 135.68-24.80L135.68-24.80L135.68-24.80Q135.04-22.85 133.98-17.63L133.98-17.63L133.98-17.63Q132.93-12.42 132.93-8.70L132.93-8.70L132.93-8.70Q132.93-4.99 133.50-3.90L133.50-3.90L133.50-3.90Q134.08-2.82 135.10-2.82L135.10-2.82L135.10-2.82Q137.15-2.82 138.66-4.77L138.66-4.77L138.66-4.77Q140.16-6.72 140.74-10.18L140.74-10.18L144.13-28.93L144.13-28.93Q142.78-30.08 141.22-30.08L141.22-30.08L141.22-30.08Q139.65-30.08 138.72-29.57L138.72-29.57L138.72-29.57Q137.79-29.06 137.06-27.90ZM160.13-3.07L160.13-3.07L168.06-44.80L181.06-46.08L179.07-36.29L179.07-36.29Q178.37-33.28 177.47-31.17L177.47-31.17L177.47-31.17Q178.88-32.96 181.95-33.66L181.95-33.66L181.95-33.66Q182.85-33.92 183.94-33.92L183.94-33.92L183.94-33.92Q189.89-33.92 193.15-30.30L193.15-30.30L193.15-30.30Q196.42-26.69 196.42-19.71L196.42-19.71L196.42-19.71Q196.42-10.62 191.23-4.93L191.23-4.93L191.23-4.93Q185.66 1.28 175.55 1.28L175.55 1.28L175.55 1.28Q168.58 1.28 163.33-1.02L163.33-1.02L163.33-1.02Q161.47-1.86 160.13-3.07ZM176.38-22.40L172.99-3.65L172.99-3.65Q174.34-2.50 176-2.50L176-2.50L176-2.50Q177.66-2.50 178.62-3.14L178.62-3.14L178.62-3.14Q179.58-3.78 180.29-5.06L180.29-5.06L180.29-5.06Q182.21-8.51 183.74-19.07L183.74-19.07L183.74-19.07Q184.19-22.08 184.19-25.09L184.19-25.09L184.19-25.09Q184.19-28.10 183.52-29.06L183.52-29.06L183.52-29.06Q182.85-30.02 181.57-30.02L181.57-30.02L181.57-30.02Q177.66-30.02 176.38-22.40L176.38-22.40ZM214.21 1.28L214.21 1.28L214.21 1.28Q200.13 1.28 200.13-11.97L200.13-11.97L200.13-11.97Q200.13-21.38 205.31-27.46L205.31-27.46L205.31-27.46Q210.82-33.92 220.35-33.92L220.35-33.92L220.35-33.92Q227.26-33.92 230.78-30.72L230.78-30.72L230.78-30.72Q234.30-27.52 234.30-20.80L234.30-20.80L234.30-20.80Q234.30-10.56 228.80-4.61L228.80-4.61L228.80-4.61Q223.42 1.28 214.21 1.28ZM215.87-26.56L215.87-26.56L215.87-26.56Q215.10-24.83 214.50-22.24L214.50-22.24L214.50-22.24Q213.89-19.65 213.12-15.55L213.12-15.55L213.12-15.55Q212.35-11.46 212.35-6.40L212.35-6.40L212.35-6.40Q212.35-4.74 212.90-3.65L212.90-3.65L212.90-3.65Q213.44-2.56 214.91-2.56L214.91-2.56L214.91-2.56Q216.38-2.56 217.31-3.26L217.31-3.26L217.31-3.26Q218.24-3.97 218.94-5.63L218.94-5.63L218.94-5.63Q220.22-8.58 221.25-14.05L221.25-14.05L221.25-14.05Q222.27-19.52 222.37-21.89L222.37-21.89L222.37-21.89Q222.46-24.26 222.46-26.02L222.46-26.02L222.46-26.02Q222.46-27.78 221.95-28.93L221.95-28.93L221.95-28.93Q221.44-30.08 220-30.08L220-30.08L220-30.08Q218.56-30.08 217.60-29.18L217.60-29.18L217.60-29.18Q216.64-28.29 215.87-26.56ZM258.11-17.98L258.11-17.98L258.11-17.98Q260.42-22.08 260.42-26.24L260.42-26.24L260.42-26.24Q260.42-28.99 258.43-28.99L258.43-28.99L258.43-28.99Q256.90-28.99 255.30-26.37L255.30-26.37L255.30-26.37Q253.63-23.74 253.12-20.35L253.12-20.35L249.79 0L236.54 1.28L243.07-32.64L253.63-33.92L252.48-27.46L252.48-27.46Q255.62-33.92 262.66-33.92L262.66-33.92L262.66-33.92Q266.37-33.92 268.38-32L268.38-32L268.38-32Q270.40-30.08 270.40-26.14L270.40-26.14L270.40-26.14Q270.40-22.21 267.81-19.71L267.81-19.71L267.81-19.71Q265.22-17.22 260.80-17.22L260.80-17.22L260.80-17.22Q258.88-17.22 258.11-17.98ZM274.21-1.92L274.21-1.92L274.21-1.92Q272.70-3.58 272.03-6.21L272.03-6.21L272.03-6.21Q271.36-8.83 271.36-13.12L271.36-13.12L271.36-13.12Q271.36-17.41 272.83-21.31L272.83-21.31L272.83-21.31Q274.30-25.22 276.99-28.03L276.99-28.03L276.99-28.03Q282.50-33.92 291.58-33.92L291.58-33.92L291.58-33.92Q294.85-33.92 297.22-32.83L297.22-32.83L308.16-33.92L303.42-8.96L303.42-8.96Q303.23-8.19 303.23-6.78L303.23-6.78L303.23-6.78Q303.23-5.38 304.10-4.48L304.10-4.48L304.10-4.48Q304.96-3.58 306.24-3.46L306.24-3.46L306.24-3.46Q305.60-1.28 303.26 0L303.26 0L303.26 0Q300.93 1.28 298.30 1.28L298.30 1.28L298.30 1.28Q295.68 1.28 293.92 0.29L293.92 0.29L293.92 0.29Q292.16-0.70 291.65-2.37L291.65-2.37L291.65-2.37Q290.62-0.77 288.45 0.26L288.45 0.26L288.45 0.26Q286.27 1.28 283.36 1.28L283.36 1.28L283.36 1.28Q280.45 1.28 278.08 0.51L278.08 0.51L278.08 0.51Q275.71-0.26 274.21-1.92ZM287.71-27.90L287.71-27.90L287.71-27.90Q286.98-26.75 286.34-24.80L286.34-24.80L286.34-24.80Q285.70-22.85 284.64-17.63L284.64-17.63L284.64-17.63Q283.58-12.42 283.58-8.70L283.58-8.70L283.58-8.70Q283.58-4.99 284.16-3.90L284.16-3.90L284.16-3.90Q284.74-2.82 285.76-2.82L285.76-2.82L285.76-2.82Q287.81-2.82 289.31-4.77L289.31-4.77L289.31-4.77Q290.82-6.72 291.39-10.18L291.39-10.18L294.78-28.93L294.78-28.93Q293.44-30.08 291.87-30.08L291.87-30.08L291.87-30.08Q290.30-30.08 289.38-29.57L289.38-29.57L289.38-29.57Q288.45-29.06 287.71-27.90ZM312.64-6.40L312.64-6.40L312.64-6.40Q312.64-8.13 313.54-12.48L313.54-12.48L316.93-29.76L313.15-29.76L313.41-31.68L313.41-31.68Q321.09-33.98 328.51-39.62L328.51-39.62L331.58-39.62L330.05-32.64L335.04-32.64L334.46-29.76L329.54-29.76L326.27-12.48L326.27-12.48Q325.44-8.51 325.44-7.17L325.44-7.17L325.44-7.17Q325.44-4.10 328.13-3.46L328.13-3.46L328.13-3.46Q327.49-1.28 325.18 0L325.18 0L325.18 0Q322.88 1.28 319.62 1.28L319.62 1.28L319.62 1.28Q316.35 1.28 314.50-0.77L314.50-0.77L314.50-0.77Q312.64-2.82 312.64-6.40ZM350.08-3.52L350.08-3.52L350.08-3.52Q348.10 1.28 341.76 1.28L341.76 1.28L341.76 1.28Q338.50 1.28 336.45-0.96L336.45-0.96L336.45-0.96Q334.72-2.94 334.72-4.93L334.72-4.93L334.72-4.93Q334.72-10.11 337.09-20.22L337.09-20.22L339.46-32.64L352.45-33.92L348.54-13.70L348.54-13.70Q347.46-8.96 347.46-7.30L347.46-7.30L347.46-7.30Q347.46-3.65 350.08-3.52ZM340.61-41.54L340.61-41.54L340.61-41.54Q340.61-44.03 342.69-45.38L342.69-45.38L342.69-45.38Q344.77-46.72 347.78-46.72L347.78-46.72L347.78-46.72Q350.78-46.72 352.61-45.38L352.61-45.38L352.61-45.38Q354.43-44.03 354.43-41.54L354.43-41.54L354.43-41.54Q354.43-39.04 352.42-37.76L352.42-37.76L352.42-37.76Q350.40-36.48 347.39-36.48L347.39-36.48L347.39-36.48Q344.38-36.48 342.50-37.76L342.50-37.76L342.50-37.76Q340.61-39.04 340.61-41.54ZM369.47 1.28L369.47 1.28L369.47 1.28Q355.39 1.28 355.39-11.97L355.39-11.97L355.39-11.97Q355.39-21.38 360.58-27.46L360.58-27.46L360.58-27.46Q366.08-33.92 375.62-33.92L375.62-33.92L375.62-33.92Q382.53-33.92 386.05-30.72L386.05-30.72L386.05-30.72Q389.57-27.52 389.57-20.80L389.57-20.80L389.57-20.80Q389.57-10.56 384.06-4.61L384.06-4.61L384.06-4.61Q378.69 1.28 369.47 1.28ZM371.14-26.56L371.14-26.56L371.14-26.56Q370.37-24.83 369.76-22.24L369.76-22.24L369.76-22.24Q369.15-19.65 368.38-15.55L368.38-15.55L368.38-15.55Q367.62-11.46 367.62-6.40L367.62-6.40L367.62-6.40Q367.62-4.74 368.16-3.65L368.16-3.65L368.16-3.65Q368.70-2.56 370.18-2.56L370.18-2.56L370.18-2.56Q371.65-2.56 372.58-3.26L372.58-3.26L372.58-3.26Q373.50-3.97 374.21-5.63L374.21-5.63L374.21-5.63Q375.49-8.58 376.51-14.05L376.51-14.05L376.51-14.05Q377.54-19.52 377.63-21.89L377.63-21.89L377.63-21.89Q377.73-24.26 377.73-26.02L377.73-26.02L377.73-26.02Q377.73-27.78 377.22-28.93L377.22-28.93L377.22-28.93Q376.70-30.08 375.26-30.08L375.26-30.08L375.26-30.08Q373.82-30.08 372.86-29.18L372.86-29.18L372.86-29.18Q371.90-28.29 371.14-26.56ZM420.42 1.28L420.42 1.28L420.42 1.28Q412.67 1.28 412.67-4.74L412.67-4.74L412.67-4.74Q412.74-6.40 413.25-9.22L413.25-9.22L414.40-15.10L414.40-15.10Q416.13-23.42 416.13-25.28L416.13-25.28L416.13-25.28Q416.13-28.99 413.95-28.99L413.95-28.99L413.95-28.99Q410.30-28.99 408.38-19.46L408.38-19.46L404.61 0L391.74 1.28L398.40-32.70L408.90-33.92L407.87-27.65L407.87-27.65Q410.88-33.92 420.10-33.92L420.10-33.92L420.10-33.92Q424.58-33.92 426.46-32.03L426.46-32.03L426.46-32.03Q428.35-30.14 428.35-25.92L428.35-25.92L428.35-25.92Q428.35-21.95 426.30-12.67L426.30-12.67L426.30-12.67Q425.34-8.51 425.34-6.94L425.34-6.94L425.34-6.94Q425.34-5.38 426.21-4.48L426.21-4.48L426.21-4.48Q427.07-3.58 428.35-3.46L428.35-3.46L428.35-3.46Q427.71-1.28 425.50 0L425.50 0L425.50 0Q423.30 1.28 420.42 1.28Z" fill="#ccc"></path></g></g><style>text {
  font-size: 64px;
  font-family: Arial Black;
  dominant-baseline: central;
  text-anchor: middle;
}</style></svg>