<svg width="734.7599609375px" height="124.439990234375px" xmlns="http://www.w3.org/2000/svg" viewBox="-117.37998046874998 12.780004882812499 734.7599609375 124.439990234375" style="background: rgba(0, 0, 0, 0) none repeat scroll 0% 0%;" preserveAspectRatio="xMidYMid"><defs><filter id="editing-extrusion" x="-100%" y="-100%" width="300%" height="300%"><feFlood result="color1" flood-color="#444"></feFlood><feConvolveMatrix order="8,8" divisor="1" kernelMatrix="1 0 0 0 0 0 0 0 0 1 0 0 0 0 0 0 0 0 1 0 0 0 0 0 0 0 0 1 0 0 0 0 0 0 0 0 1 0 0 0 0 0 0 0 0 1 0 0 0 0 0 0 0 0 1 0 0 0 0 0 0 0 0 1" in="SourceAlpha" result="extrude"></feConvolveMatrix><feComposite in="color1" in2="extrude" result="comp-extrude" operator="in"></feComposite><feOffset dx="4" dy="4" in="comp-extrude" result="offset-extrude"></feOffset><feMerge><feMergeNode in="offset-extrude"></feMergeNode><feMergeNode in="SourceGraphic"></feMergeNode></feMerge></filter></defs><g filter="url(#editing-extrusion)"><g transform="translate(-11.724998235702515, 98.68000030517578)"><path d="M14.14 0L0.51 0L7.81-38.91L8.51-42.24L22.21-42.24L14.14 0ZM40.13-3.78L40.13-3.78L40.13-3.78Q38.40 1.28 31.74 1.28L31.74 1.28L31.74 1.28Q26.82 1.28 23.42-4.61L23.42-4.61L23.42-4.61Q19.97-10.50 19.33-20.10L19.33-20.10L19.33-20.10Q26.37-32.96 31.23-38.27L31.23-38.27L31.23-38.27Q35.90-43.33 40.77-43.33L40.77-43.33L40.77-43.33Q43.39-43.33 45.28-41.92L45.28-41.92L45.28-41.92Q47.17-40.51 47.62-38.27L47.62-38.27L47.62-38.27Q45.44-37.38 44.42-36.67L44.42-36.67L44.42-36.67Q41.86-34.75 38.40-30.46L38.40-30.46L32.58-23.49L32.58-23.49Q31.17-21.82 30.59-21.06L30.59-21.06L30.59-21.06Q31.55-15.68 34.43-10.37L34.43-10.37L34.43-10.37Q37.18-5.31 40.13-3.78ZM70.53-29.57L70.53-29.57L70.53-29.57Q71.49-31.49 71.49-33.28L71.49-33.28L71.49-33.28Q71.49-35.07 71.30-36.06L71.30-36.06L71.30-36.06Q71.10-37.06 70.66-37.82L70.66-37.82L70.66-37.82Q69.70-39.49 67.78-39.49L67.78-39.49L67.78-39.49Q65.41-39.49 63.49-37.76L63.49-37.76L63.49-37.76Q61.44-35.97 61.44-33.15L61.44-33.15L61.44-33.15Q61.44-31.36 62.69-29.98L62.69-29.98L62.69-29.98Q63.94-28.61 65.86-27.33L65.86-27.33L65.86-27.33Q67.78-26.05 69.95-24.77L69.95-24.77L69.95-24.77Q72.13-23.49 74.05-21.95L74.05-21.95L74.05-21.95Q78.46-18.43 78.46-13.70L78.46-13.70L78.46-13.70Q78.46-10.50 76.77-7.78L76.77-7.78L76.77-7.78Q75.07-5.06 72.26-3.07L72.26-3.07L72.26-3.07Q66.11 1.28 57.98 1.28L57.98 1.28L57.98 1.28Q51.39 1.28 48.00-0.86L48.00-0.86L48.00-0.86Q44.61-3.01 44.61-6.27L44.61-6.27L44.61-6.27Q44.61-12.10 49.15-13.57L49.15-13.57L49.15-13.57Q50.43-14.02 52.38-14.02L52.38-14.02L52.38-14.02Q54.34-14.02 56.58-13.18L56.58-13.18L56.58-13.18Q55.55-10.56 55.55-8.19L55.55-8.19L55.55-8.19Q55.55-3.07 59.20-3.07L59.20-3.07L59.20-3.07Q61.57-3.07 63.52-4.80L63.52-4.80L63.52-4.80Q65.47-6.53 65.47-8.48L65.47-8.48L65.47-8.48Q65.47-10.43 64.22-11.84L64.22-11.84L64.22-11.84Q62.98-13.25 61.12-14.37L61.12-14.37L61.12-14.37Q59.26-15.49 57.12-16.58L57.12-16.58L57.12-16.58Q54.98-17.66 53.12-19.20L53.12-19.20L53.12-19.20Q48.77-22.72 48.77-28.35L48.77-28.35L48.77-28.35Q48.77-32 50.56-34.85L50.56-34.85L50.56-34.85Q52.35-37.70 55.23-39.62L55.23-39.62L55.23-39.62Q60.99-43.52 68.06-43.52L68.06-43.52L68.06-43.52Q75.14-43.52 78.56-41.41L78.56-41.41L78.56-41.41Q81.98-39.30 81.98-35.71L81.98-35.71L81.98-35.71Q81.98-32.58 79.55-30.59L79.55-30.59L79.55-30.59Q77.44-28.93 74.88-28.93L74.88-28.93L74.88-28.93Q72.32-28.93 70.53-29.57ZM116.74-13.25L116.74-13.25L116.74-13.25Q118.40-12.03 118.40-9.44L118.40-9.44L118.40-9.44Q118.40-6.85 117.28-5.02L117.28-5.02L117.28-5.02Q116.16-3.20 113.98-1.79L113.98-1.79L113.98-1.79Q109.31 1.22 101.15 1.22L101.15 1.22L101.15 1.22Q92.99 1.22 88.54-3.04L88.54-3.04L88.54-3.04Q84.10-7.30 84.10-14.85L84.10-14.85L84.10-14.85Q84.10-25.54 89.66-33.66L89.66-33.66L89.66-33.66Q93.89-39.68 101.44-42.24L101.44-42.24L101.44-42.24Q105.34-43.52 109.18-43.52L109.18-43.52L109.18-43.52Q113.02-43.52 115.39-43.01L115.39-43.01L115.39-43.01Q117.76-42.50 119.55-41.47L119.55-41.47L119.55-41.47Q123.46-39.23 123.46-35.65L123.46-35.65L123.46-35.65Q123.46-32.38 120.38-29.95L120.38-29.95L120.38-29.95Q117.57-27.78 115.26-27.78L115.26-27.78L115.26-27.78Q112.96-27.78 112.00-28.10L112.00-28.10L112.00-28.10Q112.26-30.40 112.26-31.90L112.26-31.90L112.26-31.90Q112.26-33.41 112.19-34.50L112.19-34.50L112.19-34.50Q112.13-35.58 111.81-36.61L111.81-36.61L111.81-36.61Q111.17-38.98 109.22-38.98L109.22-38.98L109.22-38.98Q107.26-38.98 105.31-37.15L105.31-37.15L105.31-37.15Q103.36-35.33 101.70-32.26L101.70-32.26L101.70-32.26Q97.92-25.28 97.92-17.02L97.92-17.02L97.92-17.02Q97.92-13.06 100.16-10.78L100.16-10.78L100.16-10.78Q102.40-8.51 107.20-8.51L107.20-8.51L107.20-8.51Q110.78-8.51 114.18-10.88L114.18-10.88L114.18-10.88Q115.65-11.90 116.74-13.25ZM147.58-4.80L147.58-4.80L147.58-4.80Q147.58-9.28 149.38-18.24L149.38-18.24L139.90-18.24L136.38 0L123.01 0L131.14-42.24L144.64-42.24L140.93-23.36L150.40-23.36L153.92-42.24L167.42-42.24L167.42-42.24Q166.53-37.50 165.38-32.19L165.38-32.19L163.20-21.76L163.20-21.76Q160.77-9.60 160.77-4.29L160.77-4.29L160.77-4.29Q160.77-2.11 161.47-0.90L161.47-0.90L161.47-0.90Q158.27 1.28 154.53 1.28L154.53 1.28L154.53 1.28Q150.78 1.28 149.18-0.51L149.18-0.51L149.18-0.51Q147.58-2.30 147.58-4.80ZM183.74-39.68L183.74-39.68L183.74-39.68Q184.64-41.47 186.59-42.46L186.59-42.46L186.59-42.46Q188.54-43.46 191.23-43.46L191.23-43.46L191.23-43.46Q195.46-43.46 197.98-40.42L197.98-40.42L197.98-40.42Q200.51-37.38 200.51-30.72L200.51-30.72L200.51-7.87L215.17-42.18L222.72-42.18L224.45-9.79L224.26-7.94L239.49-42.18L248.26-42.18L227.78 0L214.14 0L212.86-19.46L204.42 0L188.99 0L187.07-30.72L187.07-30.72Q186.88-34.18 185.95-36.45L185.95-36.45L185.95-36.45Q185.02-38.72 183.74-39.68ZM258.37 1.28L258.37 1.28L258.37 1.28Q244.29 1.28 244.29-11.97L244.29-11.97L244.29-11.97Q244.29-21.38 249.47-27.46L249.47-27.46L249.47-27.46Q254.98-33.92 264.51-33.92L264.51-33.92L264.51-33.92Q271.42-33.92 274.94-30.72L274.94-30.72L274.94-30.72Q278.46-27.52 278.46-20.80L278.46-20.80L278.46-20.80Q278.46-10.56 272.96-4.61L272.96-4.61L272.96-4.61Q267.58 1.28 258.37 1.28ZM260.03-26.56L260.03-26.56L260.03-26.56Q259.26-24.83 258.66-22.24L258.66-22.24L258.66-22.24Q258.05-19.65 257.28-15.55L257.28-15.55L257.28-15.55Q256.51-11.46 256.51-6.40L256.51-6.40L256.51-6.40Q256.51-4.74 257.06-3.65L257.06-3.65L257.06-3.65Q257.60-2.56 259.07-2.56L259.07-2.56L259.07-2.56Q260.54-2.56 261.47-3.26L261.47-3.26L261.47-3.26Q262.40-3.97 263.10-5.63L263.10-5.63L263.10-5.63Q264.38-8.58 265.41-14.05L265.41-14.05L265.41-14.05Q266.43-19.52 266.53-21.89L266.53-21.89L266.53-21.89Q266.62-24.26 266.62-26.02L266.62-26.02L266.62-26.02Q266.62-27.78 266.11-28.93L266.11-28.93L266.11-28.93Q265.60-30.08 264.16-30.08L264.16-30.08L264.16-30.08Q262.72-30.08 261.76-29.18L261.76-29.18L261.76-29.18Q260.80-28.29 260.03-26.56ZM302.27-17.98L302.27-17.98L302.27-17.98Q304.58-22.08 304.58-26.24L304.58-26.24L304.58-26.24Q304.58-28.99 302.59-28.99L302.59-28.99L302.59-28.99Q301.06-28.99 299.46-26.37L299.46-26.37L299.46-26.37Q297.79-23.74 297.28-20.35L297.28-20.35L293.95 0L280.70 1.28L287.23-32.64L297.79-33.92L296.64-27.46L296.64-27.46Q299.78-33.92 306.82-33.92L306.82-33.92L306.82-33.92Q310.53-33.92 312.54-32L312.54-32L312.54-32Q314.56-30.08 314.56-26.14L314.56-26.14L314.56-26.14Q314.56-22.21 311.97-19.71L311.97-19.71L311.97-19.71Q309.38-17.22 304.96-17.22L304.96-17.22L304.96-17.22Q303.04-17.22 302.27-17.98ZM332.10-30.34L332.10-30.34L332.10-30.34Q335.55-33.92 342.85-33.92L342.85-33.92L342.85-33.92Q346.88-33.92 349.09-31.78L349.09-31.78L349.09-31.78Q351.30-29.63 351.30-25.70L351.30-25.70L351.30-25.70Q351.30-21.76 349.09-18.98L349.09-18.98L349.09-18.98Q346.88-16.19 342.78-15.04L342.78-15.04L342.78-15.04Q343.10-13.76 343.55-12.42L343.55-12.42L344.45-9.86L344.45-9.86Q345.66-6.59 346.62-5.44L346.62-5.44L346.62-5.44Q347.58-4.29 348.86-3.90L348.86-3.90L348.86-3.90Q348.16-1.28 345.60 0.13L345.60 0.13L345.60 0.13Q343.55 1.28 340.74 1.28L340.74 1.28L340.74 1.28Q332.48 1.28 331.39-11.46L331.39-11.46L331.39-11.46Q331.20-13.25 331.20-15.04L331.20-15.04L331.20-15.04Q334.40-15.94 336.64-18.94L336.64-18.94L336.64-18.94Q338.88-21.95 338.88-25.47L338.88-25.47L338.88-25.47Q338.88-28.99 336.38-28.99L336.38-28.99L336.38-28.99Q334.59-28.99 333.18-27.01L333.18-27.01L333.18-27.01Q331.78-25.02 331.14-21.63L331.14-21.63L326.91 0L313.98 1.28L322.94-44.80L335.81-46.08L334.34-38.46L334.34-38.46Q333.38-33.09 332.10-30.34ZM379.20-37.12L379.20-37.12L379.20-37.12Q380.10-38.66 380.10-40.32L380.10-40.32L380.10-40.32Q380.10-43.26 378.30-43.26L378.30-43.26L378.30-43.26Q375.55-43.26 374.40-37.63L374.40-37.63L373.44-32.64L379.26-32.64L378.88-29.76L372.86-29.76L367.10 0L354.18 1.28L360.32-29.76L355.78-29.76L356.35-32.64L360.83-32.64L362.18-37.70L362.18-37.70Q363.33-42.37 368.26-44.54L368.26-44.54L368.26-44.54Q371.84-46.08 377.86-46.08L377.86-46.08L377.86-46.08Q383.87-46.08 386.56-44.54L386.56-44.54L386.56-44.54Q389.25-43.01 389.25-40.96L389.25-40.96L389.25-40.96Q389.25-38.91 387.65-37.63L387.65-37.63L387.65-37.63Q386.05-36.35 384.26-36.35L384.26-36.35L384.26-36.35Q380.74-36.35 379.20-37.12ZM393.98-3.52L393.98-3.52L393.98-3.52Q392.00 1.28 385.66 1.28L385.66 1.28L385.66 1.28Q382.46 1.28 380.42-0.96L380.42-0.96L380.42-0.96Q378.75-2.82 378.75-4.93L378.75-4.93L378.75-4.93Q378.75-9.73 380.99-20.22L380.99-20.22L385.66-44.80L398.66-46.08L392.45-13.70L392.45-13.70Q391.36-8.96 391.36-7.30L391.36-7.30L391.36-7.30Q391.36-3.65 393.98-3.52ZM413.38 1.28L413.38 1.28L413.38 1.28Q399.30 1.28 399.30-11.97L399.30-11.97L399.30-11.97Q399.30-21.38 404.48-27.46L404.48-27.46L404.48-27.46Q409.98-33.92 419.52-33.92L419.52-33.92L419.52-33.92Q426.43-33.92 429.95-30.72L429.95-30.72L429.95-30.72Q433.47-27.52 433.47-20.80L433.47-20.80L433.47-20.80Q433.47-10.56 427.97-4.61L427.97-4.61L427.97-4.61Q422.59 1.28 413.38 1.28ZM415.04-26.56L415.04-26.56L415.04-26.56Q414.27-24.83 413.66-22.24L413.66-22.24L413.66-22.24Q413.06-19.65 412.29-15.55L412.29-15.55L412.29-15.55Q411.52-11.46 411.52-6.40L411.52-6.40L411.52-6.40Q411.52-4.74 412.06-3.65L412.06-3.65L412.06-3.65Q412.61-2.56 414.08-2.56L414.08-2.56L414.08-2.56Q415.55-2.56 416.48-3.26L416.48-3.26L416.48-3.26Q417.41-3.97 418.11-5.63L418.11-5.63L418.11-5.63Q419.39-8.58 420.42-14.05L420.42-14.05L420.42-14.05Q421.44-19.52 421.54-21.89L421.54-21.89L421.54-21.89Q421.63-24.26 421.63-26.02L421.63-26.02L421.63-26.02Q421.63-27.78 421.12-28.93L421.12-28.93L421.12-28.93Q420.61-30.08 419.17-30.08L419.17-30.08L419.17-30.08Q417.73-30.08 416.77-29.18L416.77-29.18L416.77-29.18Q415.81-28.29 415.04-26.56ZM484.99-10.69L484.99-10.69Q480.77-4.86 476.70-1.79L476.70-1.79L476.70-1.79Q472.64 1.28 468.45 1.28L468.45 1.28L468.45 1.28Q464.26 1.28 462.78 0.45L462.78 0.45L462.78-13.63L462.78-13.63Q459.14-3.90 452.61-0.13L452.61-0.13L452.61-0.13Q450.24 1.28 448.00 1.28L448.00 1.28L448.00 1.28Q443.71 1.28 441.86 0.45L441.86 0.45L441.86 0.45Q441.41-14.21 441.02-18.27L441.02-18.27L441.02-18.27Q440.64-22.34 440.32-24.83L440.32-24.83L440.32-24.83Q439.68-29.82 437.50-31.87L437.50-31.87L437.50-31.87Q440.26-33.92 444.10-33.92L444.10-33.92L444.10-33.92Q451.52-33.92 452.54-24.70L452.54-24.70L452.54-24.70Q452.80-22.53 452.80-20.22L452.80-20.22L452.80-20.22Q452.80-16.77 452.03-4.74L452.03-4.74L452.03-4.74Q453.57-5.44 455.20-7.97L455.20-7.97L455.20-7.97Q456.83-10.50 458.18-13.95L458.18-13.95L458.18-13.95Q461.18-21.95 461.18-28.86L461.18-28.86L461.18-28.86Q461.18-29.95 460.90-31.10L460.90-31.10L460.90-31.10Q460.61-32.26 460.29-32.58L460.29-32.58L460.29-32.58Q462.53-33.92 465.95-33.92L465.95-33.92L465.95-33.92Q469.38-33.92 471.01-31.58L471.01-31.58L471.01-31.58Q472.64-29.25 473.09-24.96L473.09-24.96L473.09-24.96Q473.60-19.52 473.60-16.26L473.60-16.26L473.60-16.26Q473.60-11.71 473.15-4.99L473.15-4.99L473.15-4.99Q476.35-7.30 478.98-14.85L478.98-14.85L478.98-14.85Q481.60-22.40 481.60-27.78L481.60-27.78L481.60-27.78Q481.60-30.14 481.22-31.55L481.22-31.55L481.22-31.55Q483.33-33.92 486.98-33.92L486.98-33.92L486.98-33.92Q489.22-33.92 490.85-32.70L490.85-32.70L490.85-32.70Q492.48-31.49 492.48-29.22L492.48-29.22L492.48-29.22Q492.48-26.94 491.81-24.51L491.81-24.51L491.81-24.51Q491.14-22.08 490.05-19.58L490.05-19.58L490.05-19.58Q487.94-14.59 484.99-10.69L484.99-10.69ZM513.34-22.46L513.34-22.46L513.34-22.46Q514.24-24.83 514.24-26.88L514.24-26.88L514.24-26.88Q514.24-30.66 511.17-30.66L511.17-30.66L511.17-30.66Q509.57-30.66 508.26-29.22L508.26-29.22L508.26-29.22Q506.94-27.78 506.94-25.98L506.94-25.98L506.94-25.98Q506.94-24.70 507.97-23.68L507.97-23.68L507.97-23.68Q509.44-22.27 513.22-19.97L513.22-19.97L513.22-19.97Q516.99-17.66 518.43-15.78L518.43-15.78L518.43-15.78Q519.87-13.89 519.87-11.30L519.87-11.30L519.87-11.30Q519.87-8.70 518.62-6.34L518.62-6.34L518.62-6.34Q517.38-3.97 515.14-2.30L515.14-2.30L515.14-2.30Q510.34 1.28 502.66 1.28L502.66 1.28L502.66 1.28Q498.50 1.28 495.30-0.90L495.30-0.90L495.30-0.90Q492.10-3.01 492.10-5.50L492.10-5.50L492.10-5.50Q492.10-8 493.92-9.47L493.92-9.47L493.92-9.47Q495.74-10.94 498.43-10.94L498.43-10.94L498.43-10.94Q501.12-10.94 502.78-9.92L502.78-9.92L502.78-9.92Q501.95-7.81 501.95-6.40L501.95-6.40L501.95-6.40Q501.95-2.18 505.54-2.18L505.54-2.18L505.54-2.18Q507.07-2.18 508.10-3.14L508.10-3.14L508.10-3.14Q509.12-4.10 509.12-5.76L509.12-5.76L509.12-5.76Q509.12-9.02 503.62-12.48L503.62-12.48L503.62-12.48Q499.14-15.42 498.11-16.58L498.11-16.58L498.11-16.58Q496.38-18.62 496.38-21.18L496.38-21.18L496.38-21.18Q496.38-23.74 497.60-26.18L497.60-26.18L497.60-26.18Q498.82-28.61 501.06-30.34L501.06-30.34L501.06-30.34Q505.73-33.92 513.86-33.92L513.86-33.92L513.86-33.92Q518.02-33.92 520.48-32.26L520.48-32.26L520.48-32.26Q522.94-30.59 522.94-27.78L522.94-27.78L522.94-27.78Q522.94-24.96 521.25-23.36L521.25-23.36L521.25-23.36Q519.55-21.76 516.48-21.76L516.48-21.76L516.48-21.76Q514.37-21.76 513.34-22.46Z" fill="#ccc"></path></g></g><style>text {
  font-size: 64px;
  font-family: Arial Black;
  dominant-baseline: central;
  text-anchor: middle;
}</style></svg>