<svg width="134.55999145507812px" height="124.439990234375px" xmlns="http://www.w3.org/2000/svg" viewBox="182.72000427246093 12.780004882812499 134.55999145507812 124.439990234375" style="background: rgba(0, 0, 0, 0) none repeat scroll 0% 0%;" preserveAspectRatio="xMidYMid"><defs><filter id="editing-raise" x="-100%" y="-100%" width="300%" height="300%"><feFlood flood-color="#ccc" result="flood-surface"></feFlood><feFlood flood-color="#777" result="flood-extrude"></feFlood><feMorphology operator="erode" in="SourceAlpha" radius="1" result="erode"></feMorphology><feConvolveMatrix in="erode" result="shadow" order="11,8" divisor="1" kernelMatrix="0 0 0 1 1 1 1 1 0 0 0 0 0 1 0 0 0 0 0 1 0 0 0 0 1 0 0 0 0 0 1 0 0 0 0 1 0 0 0 0 0 1 0 0 0 0 1 0 0 0 0 0 1 0 0 0 0 0 1 0 0 0 1 0 0 0 0 0 0 1 1 0 1 1 0 0 0 0 0 0 0 0 1 0 0 0 0 0"></feConvolveMatrix><feOffset dx="0" dy="4" in="shadow" result="offset"></feOffset><feGaussianBlur in="offset" stdDeviation="0.2" result="blur"></feGaussianBlur><feComposite operator="in" in="flood-extrude" in2="blur" result="extrude"></feComposite><feMorphology operator="erode" in="SourceAlpha" radius="1" result="erode2"></feMorphology><feConvolveMatrix in="erode2" result="out" order="4,4" divisor="1" kernelMatrix="0 1 1 0 1 0 0 1 1 0 0 1 0 1 1 0 "></feConvolveMatrix><feComposite operator="in" in="flood-surface" in2="out" result="text"></feComposite><feMerge><feMergeNode in="extrude"></feMergeNode><feMergeNode in="text"></feMergeNode></feMerge></filter></defs><g filter="url(#editing-raise)"><g transform="translate(208.8432333469391, 97.39999961853027)"><path d="M14.14 0L0.51 0L7.81-38.91L8.51-42.24L22.21-42.24L14.14 0ZM40.13-3.78L40.13-3.78L40.13-3.78Q38.40 1.28 31.74 1.28L31.74 1.28L31.74 1.28Q26.82 1.28 23.42-4.61L23.42-4.61L23.42-4.61Q19.97-10.50 19.33-20.10L19.33-20.10L19.33-20.10Q26.37-32.96 31.23-38.27L31.23-38.27L31.23-38.27Q35.90-43.33 40.77-43.33L40.77-43.33L40.77-43.33Q43.39-43.33 45.28-41.92L45.28-41.92L45.28-41.92Q47.17-40.51 47.62-38.27L47.62-38.27L47.62-38.27Q45.44-37.38 44.42-36.67L44.42-36.67L44.42-36.67Q41.86-34.75 38.40-30.46L38.40-30.46L32.58-23.49L32.58-23.49Q31.17-21.82 30.59-21.06L30.59-21.06L30.59-21.06Q31.55-15.68 34.43-10.37L34.43-10.37L34.43-10.37Q37.18-5.31 40.13-3.78ZM70.53-29.57L70.53-29.57L70.53-29.57Q71.49-31.49 71.49-33.28L71.49-33.28L71.49-33.28Q71.49-35.07 71.30-36.06L71.30-36.06L71.30-36.06Q71.10-37.06 70.66-37.82L70.66-37.82L70.66-37.82Q69.70-39.49 67.78-39.49L67.78-39.49L67.78-39.49Q65.41-39.49 63.49-37.76L63.49-37.76L63.49-37.76Q61.44-35.97 61.44-33.15L61.44-33.15L61.44-33.15Q61.44-31.36 62.69-29.98L62.69-29.98L62.69-29.98Q63.94-28.61 65.86-27.33L65.86-27.33L65.86-27.33Q67.78-26.05 69.95-24.77L69.95-24.77L69.95-24.77Q72.13-23.49 74.05-21.95L74.05-21.95L74.05-21.95Q78.46-18.43 78.46-13.70L78.46-13.70L78.46-13.70Q78.46-10.50 76.77-7.78L76.77-7.78L76.77-7.78Q75.07-5.06 72.26-3.07L72.26-3.07L72.26-3.07Q66.11 1.28 57.98 1.28L57.98 1.28L57.98 1.28Q51.39 1.28 48.00-0.86L48.00-0.86L48.00-0.86Q44.61-3.01 44.61-6.27L44.61-6.27L44.61-6.27Q44.61-12.10 49.15-13.57L49.15-13.57L49.15-13.57Q50.43-14.02 52.38-14.02L52.38-14.02L52.38-14.02Q54.34-14.02 56.58-13.18L56.58-13.18L56.58-13.18Q55.55-10.56 55.55-8.19L55.55-8.19L55.55-8.19Q55.55-3.07 59.20-3.07L59.20-3.07L59.20-3.07Q61.57-3.07 63.52-4.80L63.52-4.80L63.52-4.80Q65.47-6.53 65.47-8.48L65.47-8.48L65.47-8.48Q65.47-10.43 64.22-11.84L64.22-11.84L64.22-11.84Q62.98-13.25 61.12-14.37L61.12-14.37L61.12-14.37Q59.26-15.49 57.12-16.58L57.12-16.58L57.12-16.58Q54.98-17.66 53.12-19.20L53.12-19.20L53.12-19.20Q48.77-22.72 48.77-28.35L48.77-28.35L48.77-28.35Q48.77-32 50.56-34.85L50.56-34.85L50.56-34.85Q52.35-37.70 55.23-39.62L55.23-39.62L55.23-39.62Q60.99-43.52 68.06-43.52L68.06-43.52L68.06-43.52Q75.14-43.52 78.56-41.41L78.56-41.41L78.56-41.41Q81.98-39.30 81.98-35.71L81.98-35.71L81.98-35.71Q81.98-32.58 79.55-30.59L79.55-30.59L79.55-30.59Q77.44-28.93 74.88-28.93L74.88-28.93L74.88-28.93Q72.32-28.93 70.53-29.57Z"></path></g></g><style>text {
  font-size: 64px;
  font-family: Arial Black;
  dominant-baseline: central;
  text-anchor: middle;
}</style></svg>